<?xml version="1.0" encoding="iso-8859-1"?>
<!-- Generator: Adobe Illustrator 17.1.0, SVG Export Plug-In . SVG Version: 6.00 Build 0)  -->
<!DOCTYPE svg PUBLIC "-//W3C//DTD SVG 1.1//EN" "http://www.w3.org/Graphics/SVG/1.1/DTD/svg11.dtd">
<svg version="1.1" id="Capa_1" xmlns="http://www.w3.org/2000/svg" xmlns:xlink="http://www.w3.org/1999/xlink" x="0px" y="0px"
	 viewBox="0 0 453.689 453.689" style="enable-background:new 0 0 453.689 453.689;" xml:space="preserve">
<path d="M407.849,217.24c-20.289,0-28.502,8.421-35.101,15.188c-2.324,2.383-4.433,4.545-6.897,6.221v-86.128
	c0-11.788-9.591-21.379-21.379-21.379h-90.51c1.659-2.394,3.789-4.463,6.133-6.738c6.753-6.56,15.158-14.722,15.158-34.981
	c0-26.134-21.017-45.841-48.886-45.841s-48.886,19.707-48.886,45.841c0,20.289,8.424,28.498,15.191,35.095
	c2.3,2.242,4.396,4.284,6.039,6.625h-90.449c-11.788,0-21.379,9.59-21.379,21.378v85.978c-2.122-1.591-4.04-3.563-6.05-5.631
	c-6.563-6.75-14.732-15.15-34.993-15.15C19.707,217.716,0,238.732,0,266.602c0,13.181,4.489,25.399,12.641,34.405
	c8.453,9.338,20.244,14.48,33.2,14.481c20.292-0.001,28.508-8.419,35.11-15.183c1.721-1.763,3.362-3.445,5.11-4.879h0.822
	l0.001,93.302c0,5.692,2.229,11.056,6.275,15.104c4.048,4.047,9.411,6.275,15.103,6.275l95.395,0.001
	c3.065,0,4.676-1.641,5.363-2.618c1.803-2.564,1.109-5.62,0.535-7.217c-2.339-6.481-6.534-10.573-10.592-14.532
	c-6.41-6.252-12.465-12.158-12.465-28.646c0-21.336,16.767-36.822,39.868-36.823c23.102,0,39.868,15.486,39.868,36.823
	c0.001,16.563-6.141,22.74-12.643,29.28c-3.909,3.931-7.951,7.996-10.311,14.099c-0.789,2.04-0.479,4.396,0.829,6.306
	c1.45,2.115,3.854,3.329,6.595,3.329h93.766c11.788,0,21.379-9.591,21.379-21.379v-95.188c2.514,1.687,4.655,3.89,7.013,6.316
	c6.562,6.751,14.727,15.153,34.985,15.153c26.134,0,45.841-21.017,45.841-48.886S433.982,217.24,407.849,217.24z"/>
<g>
</g>
<g>
</g>
<g>
</g>
<g>
</g>
<g>
</g>
<g>
</g>
<g>
</g>
<g>
</g>
<g>
</g>
<g>
</g>
<g>
</g>
<g>
</g>
<g>
</g>
<g>
</g>
<g>
</g>
</svg>
