<?xml version="1.0" encoding="iso-8859-1"?>
<!-- Generator: Adobe Illustrator 18.0.0, SVG Export Plug-In . SVG Version: 6.00 Build 0)  -->
<!DOCTYPE svg PUBLIC "-//W3C//DTD SVG 1.1//EN" "http://www.w3.org/Graphics/SVG/1.1/DTD/svg11.dtd">
<svg fill="#8358dc" version="1.1" id="Capa_1" xmlns="http://www.w3.org/2000/svg" xmlns:xlink="http://www.w3.org/1999/xlink" x="0px" y="0px"
	 viewBox="0 0 247.639 247.639" style="enable-background:new 0 0 247.639 247.639;" xml:space="preserve">
<path d="M124.181,49.354c13.606,0,24.677-11.07,24.677-24.677C148.858,11.07,137.787,0,124.181,0
	c-13.606,0-24.677,11.07-24.677,24.678C99.504,38.284,110.574,49.354,124.181,49.354z"/>
<path d="M230.842,105.984c-4.971,0-9,4.029-9,9c0,8.813-4.702,16.549-11.729,20.831c-7.891-40.216-43.403-70.653-85.896-70.653
	c-14.942,0-29.021,3.767-41.341,10.396l-12.68-12.681c-2.003-2.003-5.193-2.604-7.812-1.518c-2.615,1.083-4.503,3.636-4.503,6.467
	v27.398c-5,6.021-9.328,12.414-12.791,20.414H22.944c-7.941,0-15.064,6.106-15.064,14.048v37.176
	c0,7.942,7.122,14.776,15.064,14.776h18.524c3.717,10,9.412,20.156,16.412,28.547v30.078c0,3.866,3.508,7.375,7.374,7.375h18.861
	c3.866,0,6.765-3.509,6.765-7.375v-6.53c10,4.189,21.304,6.505,33.011,6.505c11.699,0,22.989-2.313,32.989-6.496v6.521
	c0,3.866,3.548,7.375,7.414,7.375h18.861c3.866,0,6.725-3.509,6.725-7.375V210.21c13-14.882,21.187-34.185,21.708-55.325
	c16.371-5.868,28.17-21.536,28.17-39.9C239.759,110.014,235.813,105.984,230.842,105.984z M78.156,141.273
	c-7.174,0-13.01-5.836-13.01-13.01c0-7.174,5.836-13.01,13.01-13.01c7.174,0,13.01,5.836,13.01,13.01
	C91.166,135.438,85.33,141.273,78.156,141.273z M152.155,92.251c-1.044,3.148-3.974,5.142-7.118,5.142
	c-0.782,0-1.578-0.123-2.361-0.383c-11.899-3.945-25.023-3.944-36.921,0c-3.931,1.305-8.176-0.826-9.479-4.759
	c-1.304-3.932,0.827-8.176,4.759-9.479c7.475-2.478,15.273-3.734,23.182-3.734c7.907,0,15.706,1.257,23.181,3.734
	C151.328,84.075,153.459,88.319,152.155,92.251z"/>
<g>
</g>
<g>
</g>
<g>
</g>
<g>
</g>
<g>
</g>
<g>
</g>
<g>
</g>
<g>
</g>
<g>
</g>
<g>
</g>
<g>
</g>
<g>
</g>
<g>
</g>
<g>
</g>
<g>
</g>
</svg>
